<svg aria-hidden="true" style="position:absolute;width:0;height:0;overflow:hidden">
  <defs>
    <symbol id="icon-11" viewBox="0 0 38 32">
      <path fill="#2196f3" style="fill:var(--color1, #2196f3)" d="M29.6 0H8.8a2.5 2.5 0 0 0-2.4 2.4v14.4c0 1.3 1.1 2.4 2.4 2.4h20.8c1.3 0 2.4-1.1 2.4-2.4V2.4C32 1.1 30.9 0 29.6 0zm0 1.6h.3l-10.7 9.3L8.5 1.6h21.1zm0 16H8.8a.8.8 0 0 1-.8-.8V3.4l10.7 9.2a.8.8 0 0 0 1 0l10.7-9.4v13.4c0 .5-.3.8-.8.8z"/>
    </symbol>
    <symbol id="icon-12" viewBox="0 0 20 32">
      <path fill="#757575" style="fill:var(--color2, #757575)" d="M17 0H3a3 3 0 0 0-3 3v26a3 3 0 0 0 3 3h14a3 3 0 0 0 3-3V3a3 3 0 0 0-3-3zM3 2h14c.6 0 1 .4 1 1v21H2V3c0-.6.4-1 1-1zm14 28H3a1 1 0 0 1-1-1v-3h16v3c0 .6-.4 1-1 1z"/>
      <path fill="#757575" style="fill:var(--color2, #757575)" d="M4.8 27.4v1.4c-.4.4-1.2.4-1.6 0a.8.8 0 0 1 0-1.4c.4-.2 1.2-.2 1.6 0z"/>
    </symbol>
    <symbol id="icon-21" viewBox="0 0 30 32">
      <path fill="#212121" style="fill:var(--color3, #212121)" d="m29.9 22-8.5-8.4 1-4.6.7.1a2.1 2.1 0 1 0-2-1.4l-5 .6-8-8.2-.4-.1-.4.1-1.5 1.5c-.2.3-.2.6 0 .8l.8.8a14.9 14.9 0 0 0 2.7 17.7v6.8H2.7A2.7 2.7 0 0 0 0 30.4v1c0 .3.3.6.6.6h24.5c.3 0 .5-.3.5-.6v-1c0-1.5-1.2-2.7-2.6-2.7h-6.4V25a14.6 14.6 0 0 0 10.1-1.5l.8.8.4.2c.2 0 .3 0 .3-.2l1.6-1.5c.2-.2.2-.5 0-.8zM22.4 6.3c.2-.2.4-.3.7-.3a1 1 0 0 1 0 2.1 1 1 0 0 1-.7-1.8zm-1.2 3.5-.6 3-1.2-1.2 1.8-1.8zm-.6-.9-2 2-1.5-1.6 3.5-.4zm2.5 20c.9 0 1.6.7 1.6 1.6v.5H1.2v-.5c0-1 .7-1.6 1.6-1.6h20.3zm-7.5-2.1v1h-5.3v-1h5.3zm-5.3-1.1v-4c0-1.3 1.2-2.4 2.6-2.4 1.5 0 2.7 1 2.7 2.3v4.1h-5.3zm6.4-1.7v-2.4c0-1.8-1.7-3.4-3.8-3.4-1.3 0-2.5.6-3.2 1.8a13.8 13.8 0 0 1-2.3-16L26 22.8a13.6 13.6 0 0 1-9.4 1.1zm11.3-.7-.8-.8L7.7 2.7l-.8-.6.7-.8 8 8 13.2 13.1-.8.8z"/>
      <path fill="#2196f3" style="fill:var(--color1, #2196f3)" d="M13 20.3a1.6 1.6 0 1 0 0 3.2 1.6 1.6 0 1 0 0-3.2zm.3 2a.6.6 0 1 1-.4-1 .5.5 0 0 1 .4 1z"/>
    </symbol>
    <symbol id="icon-22" viewBox="0 0 32 32">
      <path fill="#212121" style="fill:var(--color3, #212121)" d="M31.3 15.3a15.3 15.3 0 1 0-19.9 14.6h.5l.3-.5L16 17.2a2 2 0 1 0-.8-3.6L10 8.5a.6.6 0 1 0-1 .9l5.2 5c-.2.3-.2.6-.2.9 0 .6.3 1.1.7 1.5l-3.6 11.7a14 14 0 1 1 10.6-.4h-.1l-.4-1.9a.6.6 0 0 0-1-.3l-3.9 3.4a.6.6 0 0 0 .2 1.1l5 1.6h.1a.6.6 0 0 0 .7-.7l-.4-1.9c5.5-2.3 9.3-7.7 9.3-14zM16 14.6a.6.6 0 0 1 0 1.3.6.6 0 0 1 0-1.3zm2.1 14.9 2.2-2 .6 2.9-2.8-1z"/>
      <path fill="#2196f3" style="fill:var(--color1, #2196f3)" d="M15.4 3.2v1.3a.6.6 0 0 0 1.2 0V3.2a.6.6 0 0 0-1.2 0zM3.9 14.6a.7.7 0 0 0 0 1.4h1.3a.6.6 0 0 0 0-1.3H3.9zM28 16a.6.6 0 0 0 0-1.3h-1.3a.6.6 0 0 0 0 1.3h1.3z"/>
    </symbol>
    <symbol id="icon-23" viewBox="0 0 32 32">
      <path fill="#2196f3" style="fill:var(--color1, #2196f3)" d="M14.9 15H16v4.7h-1.1V15zm4.3 2.1h1v2.6h-1v-2.6zm-8.5 1.6h1v1h-1v-1zm-3.2-.6h1v1.6h-1v-1.6z"/>
      <path fill="#212121" style="fill:var(--color3, #212121)" d="M1.6 28.3h25.6c.9 0 1.6-.7 1.6-1.6v-2.2c0-.9-.7-1.6-1.6-1.6h-.5V9.7l3-2.9.7.2a1.6 1.6 0 1 0-1.5-1l-2.2 2.2V6.9c0-.8-.8-1.6-1.6-1.6H3.7c-.9 0-1.6.8-1.6 1.6v16h-.5c-1 0-1.6.8-1.6 1.6v2.2c0 1 .7 1.6 1.6 1.6zM30.4 4.8h.2a.5.5 0 1 1-.2 1.1.5.5 0 0 1 0-1zM3.2 7c0-.2.2-.5.5-.5h21.4c.2 0 .5.3.5.5v2.3l-1.1 1V8c0-.3-.2-.5-.5-.5H4.8c-.3 0-.5.2-.5.5v13.4c0 .3.2.5.5.5H24c.3 0 .5-.2.5-.5v-9.7l1.1-1v12.2H3.2V7zM8 14A1.6 1.6 0 1 0 9 16.6l1.8 1 .7-.1 4-4.5 3.8 3h.7l3.4-3.3v8.1H5.3V8.5h18.2v2.7l-3.8 3.6-4-3a.6.6 0 0 0-.7.1l-4 4.6-1.4-.8v-.2c0-.9-.7-1.6-1.6-1.6zm.5 1.6a.5.5 0 0 1-1 0 .5.5 0 0 1 1 0zm3.2 8.5h5.4v.5c0 .4-.3.6-.6.6h-4.2c-.3 0-.6-.2-.6-.6V24zm-10.6.5c0-.2.2-.5.5-.5h9v.5c0 1 .8 1.6 1.7 1.6h4.2c1 0 1.6-.6 1.6-1.6V24h9.1c.3 0 .5.3.5.5v2.2c0 .3-.2.5-.5.5H1.6a.6.6 0 0 1-.6-.5v-2.2z"/>
    </symbol>
    <symbol id="icon-24" viewBox="0 0 32 32">
      <path fill="#2196f3" style="fill:var(--color1, #2196f3)" d="M32 4.5c0-.2-.3-.3-.5-.3l-1.9-.3-.8-1.8c-.2-.3-.8-.3-1 0L27 4l-1.8.3a.5.5 0 0 0-.3.9L26 6.4l-.3 2a.5.5 0 0 0 .8.5l1.7-1L30 9h.2a.5.5 0 0 0 .6-.6l-.4-1.9L31.8 5c.2 0 .2-.3.2-.5zM29.5 6l-.2.4.2 1.2-1-.6h-.4l-1 .6.1-1.2V6l-1-.8 1.2-.2c.2 0 .3-.1.4-.3l.5-1 .5 1 .4.2 1.1.2-.8.8zm-3.4 14.6h-1v1h1v-1zm0 2.2h-1v1h1v-1zm1.1-1.1h-1v1h1v-1zm-2.1 0H24v1h1v-1zm-2.7 4.8h-1v1h1v-1zm0 2.1h-1v1h1v-1zm1-1h-1v1h1v-1zm-2 0h-1.1v1h1v-1zM16 24.1h-1v1.1h1v-1zm0 2.2h-1v1h1v-1zm1-1h-1v1h1v-1zm-2 0h-1.1v1h1v-1zM5.8 6H4.8v1h1v-1zm0 2.1H4.8v1.1h1v-1zM7 7.2H5.8v1h1v-1zm-2.2 0h-1v1h1v-1z"/>
      <path fill="#212121" style="fill:var(--color3, #212121)" d="M24.7 14.2c-.3-.4-.7-.7-1.1-.8-.5 0-1 .1-1.4.4l-1.3 1-1.9 1.4-1.4-.6a7 7 0 0 0-2.8-13.2A7 7 0 0 0 9 13H6l-3.3 1.6-1.9 1a1.8 1.8 0 1 0 1.8 3l1.3-.7 2.3-1.2h1.4l-5.4 5.4-1.4 1.3a1.6 1.6 0 0 0 0 2.3 1.6 1.6 0 0 0 2.4 0l1.4-1.3 1.7-1.2.9.9-1.8 1.7-1.3 1.4a1.6 1.6 0 0 0 0 2.3 1.7 1.7 0 0 0 2.4 0l3.4-3.4 1-1 5.2-5.7 3.5.5a.5.5 0 0 0 .2 0h.1l3.2-2.2h.1l1.3-1.3a1.8 1.8 0 0 0 .2-2.3zM2.2 17.8h-.6a.7.7 0 0 1-.2-1.3l1.3-.6.3 1 .2.4-1 .4zM5.7 16l-1.6.7-.3-.7-.1-.5 2-1V16zm15-6.7c0 1-.1 1.8-.5 2.6l-4.2-2c0-.5-.3-1-.8-1.3l1.5-4.9c2.4.8 4.1 3 4.1 5.6zM9 9.3a5.9 5.9 0 0 1 6.6-5.8L14 8.2c-1 0-1.9.8-1.9 1.9v.2a1.8 1.8 0 0 0 3.5.7l3.9 1.8A5.9 5.9 0 0 1 9 9.3zm6 .8c0 .5-.4.8-.9.8s-.8-.3-.8-.8.4-.8.8-.8.8.4.8.8zm-12.5 15c-.2.3-.6.3-.9 0a.6.6 0 0 1 0-.8l1-1 .9.9-1 1zm3.2 3.7c-.2.3-.6.3-.8 0a.6.6 0 0 1 0-.8l1-.9.4.4.4.4-1 1zm3.5-3.4-1.7 1.8-.5-.4-.4-.5 1.8-1.8v-.3h.1V24l-.1-.2-1.6-1.6h-.1l-.1-.1h-.7l-1.7 1.4-1-1 2.5-2.3 4.4 4.3-1 .9zm6.8-7-.4.1-4.8 5.3-4.4-4.3 2.9-2.8.1-.4c0-.3-.2-.5-.5-.5H6.7v-1.6h3a7 7 0 0 0 6.4 2l2.5 1 .1.8.2.9-3-.5zm4 .2-.3-1.6 1.5-1 .4.4.5.8-2 1.4zm3.8-2.9-.8.8-1-1.2.9-.6c.1-.2.3-.2.5-.2a.7.7 0 0 1 .5 1.2z"/>
      <path fill="#212121" style="fill:var(--color3, #212121)" d="m13.6 18.6-2.2-2.2a.5.5 0 0 0-.7 0l-2.2 2.2a.5.5 0 0 0 0 .7l2.2 2.1.3.2c.1 0 .3 0 .4-.2l2.2-2.1a.5.5 0 0 0 0-.7zm-2.5 1.7-1.4-1.4 1.4-1.3 1.3 1.3-1.3 1.4zM17 5 17 6.1s1.8.5 1.8 2.2h1c0-2-1.7-3-2.6-3.2zm2.6 4.3h-1v1h1v-1z"/>
    </symbol>
    <symbol id="icon-31" viewBox="0 0 32 32">
      <path fill="#afb1b8" style="fill:var(--color4, #afb1b8)" d="M32 9.4c0-1.6-.3-2.8-.8-3.8-.3-1.1-1-2-1.8-2.9A8 8 0 0 0 26.6.8 105.7 105.7 0 0 0 5 .8h.5a9 9 0 0 0-2.9 2A8 8 0 0 0 1 5.3C.5 6.6 0 7.7 0 9.6a106.3 106.3 0 0 0 .9 17.7l-.1-.6c.4 1 1 2 1.8 2.7a8 8 0 0 0 2.8 2c1 .3 2.1.6 3.9.6a112.7 112.7 0 0 0 17.6-.7h-.5c2.2-.8 4-2.5 4.8-4.7l.6-3.9A113.7 113.7 0 0 0 32 9.3v.3zm-2.9 13c0 1.6-.3 2.4-.6 3a4.8 4.8 0 0 1-3 3c-.5.2-1.3.6-3 .6a108.1 108.1 0 0 1-16.4-.6h.5c-.7-.2-1.3-.6-1.8-1a6 6 0 0 1-1.1-2c-.3-.4-.7-1.4-.7-3A109.7 109.7 0 0 1 3.7 6v.6c.1-.7.6-1.3 1.1-1.8.5-.6 1.1-1 1.8-1.3.6-.1 1.6-.5 3.2-.5a108 108 0 0 1 16.1.6h-.5a4 4 0 0 1 2 1.2c.4.5 1 1.1 1 1.8.4.6.6 1.4.7 3l.2 6.4-.2 6.7v-.3z"/>
      <path fill="#afb1b8" style="fill:var(--color4, #afb1b8)" d="M16 7.8h-1.1A8.2 8.2 0 1 0 16 24a8.2 8.2 0 0 0 0-16zm0 13.5a5.3 5.3 0 0 1 0-10.6 5.3 5.3 0 0 1 0 10.6zM26.6 7.5a2 2 0 0 1-3.9 0 2 2 0 0 1 3.9 0z"/>
    </symbol>
    <symbol id="icon-32" viewBox="0 0 32 32">
      <path fill="#afb1b8" style="fill:var(--color4, #afb1b8)" d="M32 6c-1.1.6-2.4.9-3.8 1 1.3-.7 2.3-2 2.8-3.4-1.2.7-2.5 1.2-4.1 1.5a6.5 6.5 0 0 0-11.2 6A18.5 18.5 0 0 1 2.2 4c-.5 1-.9 2.1-.9 3.4 0 2.3 1.2 4.3 3 5.4-1.1 0-2.1-.2-3-.8 0 3.3 2.2 6 5.3 6.5a6.3 6.3 0 0 1-3.1.1c1 2.7 3.2 4.7 6.3 4.7A13 13 0 0 1-.1 26H0a18 18 0 0 0 10 2.7A18.6 18.6 0 0 0 28.7 9.6c1.5-1 2.4-2 3.4-3.4z"/>
    </symbol>
    <symbol id="icon-33" viewBox="0 0 32 32">
      <path fill="#afb1b8" style="fill:var(--color4, #afb1b8)" d="M21.3 5.3h3V.2L20 0c-4.2 0-7 2.7-7 7.5V12H8v5.8h4.8V32h5.6V17.6h4.5l.8-5.6h-5.3V8.2c0-1.6.5-3 2.7-3z"/>
    </symbol>
    <symbol id="icon-34" viewBox="0 0 32 32">
      <path fill="#afb1b8" style="fill:var(--color4, #afb1b8)" d="M32 32V20.3c0-5.7-1.3-10.2-8-10.2a7 7 0 0 0-6.2 3.5v-3h-6.6V32h6.6V21.4c0-2.8.4-5.4 4-5.4 3.3 0 3.5 3.2 3.5 5.6V32H32zM.5 10.6h6.7V32H.5V10.6zM3.8 0C1.8 0 0 1.6 0 3.8 0 6 1.6 7.7 3.8 7.7a3.8 3.8 0 1 0 0-7.7z"/>
    </symbol>
    <symbol id="icon-41" viewBox="0 0 28 32">
      <path fill="#afb1b8" style="fill:var(--color4, #afb1b8)" d="M4 0 9 4.5H0v22h23.1V18l4.8 4.5V0H4.1zm19 17.5L9.3 4.8h13.5v12.8zm-4.3 5.7h-15V8.5h1v13.7h14v1zM7.2 29.3l-.5 1.2-.6-1.2h-.5l.9 1.5v1h.4v-1l.8-1.5h-.5zm.7 2.5.2-.6h1l.2.6h.4l-.8-2.5h-.5l-1 2.5H8zm.7-2 .3 1h-.7l.4-1zm2.2 1-.1.3c0 .2 0 .4.3.5.1.1.2.2.5.2.2 0 .4 0 .6-.2l.2.2h.4l-.3-.5.2-.7h-.3c0 .2 0 .3-.2.4l-.5-.5.2-.1.3-.2v-.3l-.1-.4a.6.6 0 0 0-.4-.2c-.2 0-.4 0-.5.2l-.2.5v.2l.3.3c-.2 0-.3.2-.4.3zm1.1.5-.4.2-.3-.1-.1-.3c0-.1 0-.3.2-.3l.6.5zm-.5-1-.1-.4v-.2h.5v.4l-.3.2zm4 1.3c.2-.1.3-.3.3-.6h-.4c0 .2 0 .3-.2.3 0 .2-.2.2-.4.2l-.4-.2-.1-.7v-.2c0-.2 0-.4.2-.6l.4-.1h.3l.2.5h.4c0-.3-.1-.5-.3-.7l-.7-.2c-.1 0-.3 0-.5.2l-.3.3a1.4 1.4 0 0 0-.1.7v.7l.4.5h.5l.7-.1zm2.5-.3v-1.5a1 1 0 0 0-.9-.5c-.2 0-.4 0-.5.2-.2 0-.3.2-.4.4l-.1.6v.1l.1.7c0 .2.2.3.4.4l.5.1.5-.1.4-.4zm-.5-1.4.2.6v.1c0 .3 0 .5-.2.7l-.4.2-.5-.2v-1.5l.5-.1c.2 0 .3 0 .4.2z"/>
    </symbol>
    <symbol id="icon-42" viewBox="0 0 25 32">
      <path fill="#afb1b8" style="fill:var(--color4, #afb1b8)" d="M10.5 1.8H9c-2.2 0-4.4.7-6.5 1.6l-.3.1v13.7l.6-.2a23 23 0 0 1 6.8-1.2v1.9h-.7c-3.1.1-6 1-8.6 2.4l.1-.1V2.5A18 18 0 0 1 9.7 0h.3c1.1 0 2.2.2 3.3.5h-.1v1.7L11 1.8h-.5zm3.1 1.8h1.2c3.4 0 6.6-.9 9.4-2.4v17.3a18.1 18.1 0 0 1-12.9 2h.1V3.4c.7.2 1.4.3 2.2.3zm8.7.2-.6.1-1.7.6a20.6 20.6 0 0 1-6.3.6h-.5v14h.4l1.2.1c2.7 0 5.2-.6 7.4-1.8h.2V3.8zM1.7 26a1 1 0 0 0-.7-.3H.6a1 1 0 0 0-.6 1V29l.1.5.2.3.4.2h.7c.3-.2.6-.5.6-1v-.2h-.6v.4l-.3.2H1l-.3-.1v-2.8a.3.3 0 0 1 .2-.2c.1 0 .2 0 .3.2v.5H2v-.3c0-.3-.1-.5-.3-.7zm3.6 0a1.1 1.1 0 0 0-1-.2c-.2 0-.3 0-.4.2l-.2.3V29.4l.2.3.3.2a1 1 0 0 0 .8 0c.1 0 .2 0 .3-.2.2-.2.3-.4.3-.7V26.3l-.3-.3zM5 29v.2l-.4.2s-.2 0-.3-.2l-.1-.3v-2.3l.1-.1.3-.2c.1 0 .2 0 .3.2l.1.3V29zm5 1v-4.3h-.5L8.7 28 8 25.7h-.6V30H8v-2.6l.7 1.8h.3l.6-1.8V30h.6zm3.5-4-.3-.2h-1.4V30h.6v-1.7h.3l.6-.1.3-.3.2-.4a3 3 0 0 0 0-1.1l-.3-.4zm-.3 1.3v.3H13a.6.6 0 0 1-.3 0h-.3v-1.3h.6l.2.2v.8zm3.2-1.6h-.5l-1 4.3h.7l.2-1h.8l.1 1h.7l-1-4.3zm-.6 2.8.3-1.5.3 1.5h-.6zm4.5-.2-1-2.6h-.5V30h.6v-2.6l1 2.6h.5v-4.3h-.6v2.6zm3.7-2.6-.5 1.7-.5-1.7h-.7l.9 2.5V30h.6V28l.8-2.4H24zM0 31.1h.3v.9h.2v-.9h.3H0zm2.5 0L2 32h.2v-.2h.5v.2h.3l-.5-1h-.1zm0 .5v-.4l.2.4h-.3zm2.4 0h.2v.2h-.4l-.1-.3c0-.2 0-.4.3-.4l.2.2h.2c0-.2-.2-.3-.4-.3h-.4a.5.5 0 0 0-.1.5v.4a.5.5 0 0 0 .5.1c.1 0 .3 0 .4-.2v-.4h-.4v.2zm2.5-.6H7v1h.7v-.2h-.4V31zm2 0h-.2v1h.2v-1zm2 .6-.3-.6h-.2v1h.2v-.6l.3.6h.2v-1h-.2v.6zm1.9 0h.5v-.2h-.5V31h.5-.7v.9h.7v-.2h-.5v-.2zm4.5-.2h-.4V31h-.2v1h.2v-.4h.4v.4h.2v-1h-.2v.4zm1.9.2h.4v-.2h-.4V31h.5-.7v.9h.7v-.2h-.5v-.2zm2.5 0 .2-.3V31a.6.6 0 0 0-.4 0h-.4v.9h.2v-.4h.2l.3.4h.2l-.1-.2-.2-.2zm-.2-.2h-.2V31h.4a.1.1 0 1 1 0 .3.7.7 0 0 1-.2 0zm2 .2h.6v-.2H24V31h.5-.7v.9h.7v-.2h-.5v-.2z"/>
    </symbol>
    <symbol id="icon-43" viewBox="0 0 34 32">
      <path fill="#afb1b8" style="fill:var(--color4, #afb1b8)" d="m5.6 31.3.3.2-.5.3-.7.1-.6-.1-.4-.3-.3-.4a1.5 1.5 0 0 1 0-1.2l.3-.4.5-.2a2 2 0 0 1 1.2 0l.5.2-.2.1h-.2l-.7-.2h-.5l-.3.3c0 .2-.2.2-.3.4v1l.3.2.3.2H5c.2 0 .4 0 .6-.2zm4.8-.8v.6l-.4.4-.5.3H8.2l-.4-.3-.3-.4a1.5 1.5 0 0 1 0-1.2l.3-.4.4-.2c.5-.2 1-.2 1.3 0l.5.2c.3.2.4.6.4 1zm-.4 0V30a1 1 0 0 0-.6-.6 1.5 1.5 0 0 0-1 0l-.3.2-.3.4v.8c.1.3.4.6.7.6h.9l.3-.2.2-.4v-.3zm3.7.5V31l1.2-1.7h.6v2.6H15v-2l-1 1.6h-.4l-1.3-1.7V32H12v-2.6h.5l1 1.6.1.2zm4-.1v1h-.4v-2.7h1.4l.4.2.2.2v.7l-.3.3-.3.2h-1zm0-.3h.8l.2-.2.2-.2v-.5l-.2-.2-.5-.2h-.5v1.2zm5.6 1.2H23l-.3-.7H21l-.3.7h-.5l1.3-2.6h.4l1.3 2.6zm-2-1h1.1l-.5-1-.1-.3v.3l-.5 1zm3.8-1.6 1.9 2v-2h.4v2.6H27l-1.9-2v2h-.3V29h.3zm5.3 1.6v1H30v-1L29 29.2h.4l.8 1.1v.2l.1-.1h.1l.8-1.1v-.1h.4l-1 1.6zm-17-6.2h.7c2.8-1 5-2.8 6.7-5 1.8-2.4 2.6-5 2.5-7.7l-3-2.6a13.4 13.4 0 0 1-1 8.5 16.1 16.1 0 0 1-5.8 6.8z"/>
      <path fill="#afb1b8" style="fill:var(--color4, #afb1b8)" d="M12.4 24.4c3-1.7 5-4.1 6.3-7s1.3-5.9.5-8.8l-4.3-3.8C16.2 7.1 17 10 17 13c0 4.4-1.7 8.4-4.6 11.4zm15-9.3c-.9 3.1-2.7 5.8-5.2 7.6l-2.5 1.5c2.2-.5 4.1-1.5 5.8-2.9 1.5-1.3 2.8-2.9 3.6-4.6l-1.7-1.5z"/>
      <path fill="#afb1b8" style="fill:var(--color4, #afb1b8)" d="M26.7 14.7 24 12.4c0 2.6-.9 5-2.4 7.2s-3.6 3.9-6.2 5h1.7a16 16 0 0 0 6.1-4 13 13 0 0 0 3.3-5.8v-.1zM12.8 3.2 9.8.5C7 1.5 4.8 3 3 5.1c-1.6 2-2.6 4.4-2.6 7 0 3 1.1 5.6 3 7.7 2 2.3 4.9 3.8 8 4.6a16.1 16.1 0 0 0 1.2-21.2zm20.8 11c0-3.2-1.5-6.4-4.2-8.7a15.5 15.5 0 0 0-15.3-2.9l18.6 16.1c.6-1.4.9-3 .9-4.5z"/>
    </symbol>
    <symbol id="icon-44" viewBox="0 0 65 32">
      <path fill="#2196f3" style="fill:var(--color1, #2196f3)" d="M10 10c-1.8 0-3.3 1.3-3.3 3 0 1.6 1.5 2.8 3.3 2.8 1.8 0 3.3-1.2 3.3-2.8 0-1.7-1.5-3-3.3-3zm24.4-1c0-2.2-1-4.4-2.8-6a10.8 10.8 0 0 0-13.5.1 8.1 8.1 0 0 0-2.8 6v12.5s19-2 19-12.5zM0 25.6c0 1.6.8 3 2 4.2 1.2 1 2.8 1.8 4.6 1.8 1.9 0 3.5-.6 4.8-1.8 1.1-1 1.9-2.5 2-4V16.8S0 18.2 0 25.5zM6.6 27c-.3 0-.7 0-.9-.2-.3-.1-.5-.4-.7-.7 0-.2-.1-.6 0-.8 0-.3.2-.6.4-.8.2-.3.6-.4 1-.4h1l.7.6a1.4 1.4 0 0 1-.2 2l-.6.3-.7.1zm13.5-.7h-1.3v1.3h-.5v-3.2h2v.6H19v.8h1.3v.6zm3.2-.2-.1.7c-.2.5-.7.8-1.2.8-.3 0-.5 0-.8-.2l-.5-.5-.1-.8v-.2l.1-.8c.2-.5.7-.8 1.2-.8.3 0 .6 0 .8.2.2.1.4.3.5.6l.1.7v.3zm-.6-.2c0-.4 0-.6-.2-.8a.6.6 0 0 0-.6-.3c-.2 0-.3.1-.5.3l-.1.8v.2l.1.7c.2.2.3.2.5.2s.5 0 .6-.2l.2-.7v-.2zm2.8.8-.1-.3-.5-.2a.9.9 0 0 1-.5-.2c-.4-.2-.6-.5-.6-.8l.1-.4.5-.4.6-.1h.6l.5.5.1.5h-.7l-.1-.4a.6.6 0 0 0-.4 0h-.4l-.1.3.1.2.5.3c.3 0 .7.2.8.4.2.2.3.3.3.6s-.1.5-.3.7c-.2.2-.5.3-1 .3-.1 0-.4 0-.6-.2l-.5-.4-.1-.5h.7c0 .3.2.5.6.5l.4-.1.1-.3zm3.6-1.8h-1v2.7h-.7v-2.7h-1v-.6h2.7v.6zm2.3 1.3h-1.2v.8h1.5v.6h-2.3v-3.2h2.3v.6h-1.5v.8h1.3v.5zm1.8.2h-.4v1.2h-.6v-3.2h1c.6 0 .9.1 1 .3.2.1.3.4.3.7l-.1.6-.4.3.7 1.4h-.8l-.6-1.3zm-.4-.5h1V25l-.5-.1h-.5v.9zm4 .6v1.2h-.7v-3.3h1.4l.6.1.5.4.1.6c0 .3-.1.6-.4.8l-.9.2H37zm0-.5h.7c.1 0 .3 0 .4-.2l.1-.3-.1-.4a.5.5 0 0 0-.4-.1h-.6v.9zm4.3.3h-1.3v.8h1.5v.6h-2.1v-3.3h2v.6h-1.6v.8H41v.5zm3-1.3h-.9v2.7h-.7V25h-1v-.6h2.7v.6zm2.4 1.3h-1.2v.8h1.5v.6h-2.2v-3.3h2.2v.6h-1.5v.8h1.2v.5zm1.9.1h-.6v1.3h-.7v-3.3h1.3c.4 0 .7.1.8.3.2.1.3.4.3.7v.6l-.5.3.8 1.4H49l-.6-1.3zm-.6-.5h1l.1-.5-.1-.3-.4-.1h-.6v.9zm4 1-.1-.4-.6-.2-.5-.2a.8.8 0 0 1-.5-.8l.1-.5c0-.1.2-.3.4-.3l.6-.1h.7l.4.4.1.6h-.7l-.1-.4a.6.6 0 0 0-.4 0h-.4l-.1.3.2.2.5.3c.3 0 .6.2.7.3.2.3.3.4.3.7s0 .5-.3.7c-.2.2-.5.2-.8.2s-.6 0-.8-.1l-.4-.4-.2-.5h.8c0 .3.1.5.6.5l.4-.2v-.2z"/>
    </symbol>
    <symbol id="icon-45" viewBox="0 0 43 32">
      <path fill="#afb1b8" style="fill:var(--color4, #afb1b8)" d="m3.3 26.3.2.7-.1.5-.3.3c-.3.3-.7.4-1.1.4H0V24h2c.3 0 .7 0 1 .2l.3.4.1.5c0 .2 0 .4-.3.6l-.5.3c.3 0 .5.2.7.3zM1 25.7h.8l.4-.1.2-.2V25l-.2-.2c0-.2-.3-.2-.5-.2H1v1.1zm1.3 1.7.2-.2v-.5l-.1-.2c-.2-.2-.4-.2-.6-.2H1v1.2h.8l.6-.1zm5 .8L6 26.6h-.4v1.6h-1V24h1.8c.5 0 1 .1 1.3.3.2.3.4.6.4.9s-.1.7-.3.9l-.8.4 1.1 1.7h-1zm-1.6-2.3h.8c.5 0 .8-.2.8-.6v-.2l-.2-.2-.6-.3h-.8V26zm6.6 1.5h-1.9l-.3.8H9l1.7-4.2h1l1.7 4.2h-.9l-.3-.8zm-.3-.7-.7-1.8-.7 1.8H12zm6.6 1.5h-.9l-2-2.9v2.9h-1V24h.9l2 2.8V24h1v4.2zm5.2-1c-.1.3-.4.6-.8.7-.4.2-.8.3-1.3.3h-1.6V24h1.7c.5 0 .9 0 1.3.2.3.2.7.4.8.7a2.3 2.3 0 0 1 0 2.3zm-1-.1a1.5 1.5 0 0 0 0-2c-.3-.3-.7-.5-1.1-.4H21v2.7h.7c.4 0 .8-.1 1.1-.3zM12.8.5s12 4.1 11.6 10v10.1s-11.8-4-11.5-10V.6zm22.3 17.7c2.2-1.3 4.7-2.2 7.5-2.5v-3.1c-3.1 1-5.7 3-7.5 5.6z"/>
      <path fill="#afb1b8" style="fill:var(--color4, #afb1b8)" d="M33.7 19.2c1.8-3.4 5-6 8.9-7.3V3S25.6 8.7 26 17.2v14.3l2-.8v-1.4c.4-3.9 2.4-7.5 5.7-10.1z"/>
      <path fill="#afb1b8" style="fill:var(--color4, #afb1b8)" d="M32 24.5c.2-1 .3-2 .7-3a13.2 13.2 0 0 0-3.6 8.7l3.2-1.5c-.2-1.4-.4-2.8-.2-4.1zm.7 0a12.5 12.5 0 0 0 .3 4v-.2c4.6-2.5 9.8-6.4 9.6-11.1v-.5c-3.3.4-6.4 1.7-8.8 3.8a15 15 0 0 0-1 4z"/>
    </symbol>
    <symbol id="icon-46" viewBox="0 0 67 32">
      <path fill="#afb1b8" style="fill:var(--color4, #afb1b8)" d="M33.7 15.2a2.1 2.1 0 0 1-.4-1.4v-2c0-.6.1-1.1.4-1.5a2 2 0 0 1 1.4-.5c.7 0 1.2.2 1.5.4.3.4.4.8.4 1.2v.5h-1.2V11l-.2-.3a.7.7 0 0 0-.4-.1l-.4.1c-.2 0-.2.2-.2.3v3.7l.3.2h.3l.4-.1.2-.3v-1H37v.5c0 .4 0 .9-.4 1.3-.3.3-.7.4-1.4.4s-1.2-.1-1.4-.5zm5 0c-.4-.3-.6-.7-.6-1.4v-2.1c0-.6.2-1.1.5-1.5.3-.2.7-.4 1.4-.4s1.2.2 1.5.5c.3.3.5.7.5 1.4V14c0 .5-.2 1-.5 1.4-.3.3-.8.4-1.4.4-.7 0-1.2-.1-1.5-.5zm1.9-.5.1-.6v-2.7l-.1-.6-.2-.1a.7.7 0 0 0-.4 0 .7.7 0 0 0-.3 0l-.2.1c-.1.2-.2.4-.1.6v2.7l.1.7.3.1a.8.8 0 0 0 .6 0l.2-.2zm2.8-4.7h1.3l.9 3.9 1-4h1.2v5.7H47l-.1-4-1 4h-.7l-.9-4-.2 4h-1l.2-5.6zm5.9 0h2c1.1 0 1.7.5 1.7 1.5s-.7 1.6-1.8 1.6h-.7v2.5h-1.2V10zm1.7 2.4h.3l.3-.2.2-.7V11l-.1-.1-.2-.2h-1v1.7h.5zm3.8-2.4H56l1.4 5.6h-1.2l-.2-1.3h-1.2l-.3 1.3h-1.2l1.5-5.6zm1 3.7-.5-2.5-.4 2.5h1zm2.6-3.7h.8l1.7 3.2V10h1v5.6H61l-1.7-3.4v3.4h-1V10zm5.8 3.5L63 10H64l.9 2.2.7-2.3h1.1l-1.3 3.5v2.2h-1.2v-2zm-28.6 4.6v.4h-1v2.3h-.5v-2.3h-1V18h2.5zm3 2.7h-.4l-.3-.7h-1.3l-.3.7h-.5L37 18h.5l1.2 2.7zm-2-.9h1.2l-.5-1v-.3.1l-.1.1-.5 1.1zm4.1.7h.3l.4-.1h.1v-.7H41v-.2h.9v1l-.8.2h-.4l-.6-.1-.5-.2-.3-.4-.1-.6.1-.6.3-.4.5-.2a2 2 0 0 1 1-.2c.2 0 .4.2.5.3h.2v.2h-.3l-.3-.1-.4-.2-.6.2-.3.1-.2.4v1l.3.3c.2.1.4.3.7.3zm3.9-.1h1.3v.3h-1.7V18h.4v2.4zm2.7.3h-.4V18h.5v2.7zm1.6-2.7v.1l1.8 2v-2h.4v2.6h-.4l-1.8-2v2h-.3v-2.6h.2zm5.1 0v.3h-1.4v1h1.2v.2h-1.2v.9H54v.3h-1.8V18H54zM10.8 2l18.4 4.5V22l-18.4-4.4V1.9zM9.6.5v18l20.7 5V5.7L9.7.5z"/>
      <path fill="#afb1b8" style="fill:var(--color4, #afb1b8)" d="M20.7 31.8 0 26.8v-18L20.7 14v17.8z"/>
      <path fill="#afb1b8" style="fill:var(--color4, #afb1b8)" d="m10 1.7 18 4.4-7.7 6.7-18-4.5L10 1.7zM9.6.6 0 8.8 20.7 14l9.6-8.3L9.7.6zm12.2 30.2 8.6-7.3-8.6-2.1v9.4z"/>
    </symbol>
  </defs>
</svg>